<svg xmlns="http://www.w3.org/2000/svg" width="24" height="24" viewBox="0 0 24 24" fill="none"><path d="M20.8656 19.7346L16.5369 15.406C17.6084 14.0861 18.2518 12.4049 18.2518 10.5762C18.2518 6.34343 14.8085 2.9 10.576 2.9C6.34332 2.9 2.9 6.34343 2.9 10.5762C2.9 14.8086 6.34333 18.2518 10.576 18.2518C12.4046 18.2518 14.0859 17.6085 15.4057 16.537L19.7346 20.8657C19.7346 20.8657 19.7346 20.8657 19.7346 20.8657C19.8907 21.0219 20.0956 21.1 20.3001 21.1C20.5046 21.1 20.7095 21.0219 20.8657 20.8657C21.1781 20.5534 21.1781 20.047 20.8656 19.7346C20.8656 19.7346 20.8656 19.7346 20.8656 19.7346ZM4.49966 10.5762C4.49966 7.22565 7.22555 4.49966 10.576 4.49966C13.9263 4.49966 16.6521 7.22565 16.6521 10.5762C16.6521 13.9264 13.9263 16.6521 10.576 16.6521C7.22554 16.6521 4.49966 13.9264 4.49966 10.5762Z" fill="currentColor" stroke="currentColor" stroke-width="0.2"></path></svg>